<svg width="41" height="26" viewBox="0 0 41 26" fill="none" xmlns="http://www.w3.org/2000/svg">
<path d="M3.77818 20.3814C3.50853 13.4836 8.90645 4.63602 19.4294 3.72333V1.8501C18.8821 1.8501 18.3572 1.85967 17.8338 1.8485C17.1206 1.83414 16.7552 1.53577 16.7329 0.972519C16.7105 0.401294 17.0679 0.0263274 17.7556 0.0167538C19.5363 -0.0055846 21.3186 -0.0055846 23.0993 0.0167538C23.7854 0.0247318 24.1412 0.404485 24.1157 0.977306C24.0918 1.51502 23.7376 1.81978 23.0897 1.8485C22.8249 1.85967 22.5584 1.85169 22.2919 1.85169C22.0287 1.85169 21.7654 1.85169 21.4351 1.85169V3.73291C26.8314 4.22914 31.1842 6.61456 34.2797 11.1253C36.1769 13.8889 37.0927 16.9732 37.1326 20.383H3.77818V20.3814ZM18.5423 10.1728C18.4928 9.66535 18.2168 9.37655 17.687 9.31272C15.1708 9.00796 11.9301 11.1429 11.2153 13.5826C11.0446 14.1649 11.2536 14.6309 11.7674 14.8175C12.2381 14.9883 12.6609 14.784 12.9274 14.2575C12.9513 14.2096 12.9657 14.1586 12.9848 14.1091C13.6757 12.3843 15.0304 11.5338 16.7935 11.2274C17.1334 11.1684 17.4812 11.1604 17.8195 11.0966C18.3093 11.0041 18.5295 10.6738 18.5439 10.1728H18.5423Z" fill="#AD1A19"/>
<path d="M20.3359 25.9997C14.437 25.9997 8.53807 25.9997 2.64073 25.9997C2.32161 25.9997 2.00089 26.0061 1.68496 25.9726C0.738773 25.8704 0.0558559 25.162 0.00320106 24.2509C-0.0494538 23.343 0.552088 22.5356 1.46796 22.3346C1.77432 22.2676 2.10142 22.2724 2.41735 22.2724C14.4274 22.2692 26.4375 22.2692 38.4476 22.274C38.8146 22.274 39.1975 22.2915 39.547 22.392C40.3847 22.633 40.9016 23.4196 40.8442 24.2685C40.7836 25.1508 40.1262 25.8497 39.2247 25.963C38.9103 26.0029 38.588 25.9981 38.2705 25.9981C32.2918 25.9997 26.3131 25.9981 20.3359 25.9981V25.9997Z" fill="#AD1A19"/>
</svg>
