<svg width="37" height="30" viewBox="0 0 37 30" fill="none" xmlns="http://www.w3.org/2000/svg">
<path d="M32.8345 9.05282C31.9728 8.28785 31.5413 7.41608 31.6178 6.32636C31.7477 4.48177 33.445 3.22751 35.0861 3.76587C36.2697 4.15413 37.0563 5.40695 36.9754 6.77668C36.899 8.07713 36.0156 9.15097 34.8032 9.41799C34.6401 9.45407 34.4756 9.48727 34.236 9.53923C33.0467 15.0513 31.853 20.5822 30.6522 26.1434H6.32904C5.13252 20.5995 3.94032 15.0701 2.74812 9.54356C2.50275 9.4916 2.31656 9.45407 2.13182 9.41077C0.792398 9.1019 -0.0981424 7.79423 0.00866469 6.29749C0.109698 4.89601 1.17344 3.76299 2.50708 3.63742C3.88547 3.50752 5.19747 4.69971 5.35479 6.23398C5.44572 7.11586 5.19314 7.89671 4.62446 8.57508C4.48879 8.73818 4.33579 8.88684 4.15971 9.07592C5.57995 11.1399 7.04927 13.1216 9.19984 14.4697C10.7442 15.4382 11.8108 15.3746 13.0579 14.0497C13.8243 13.2356 14.5229 12.3119 15.0454 11.3275C15.9994 9.52913 16.799 7.6499 17.6751 5.77789C17.3749 5.58015 17.1743 5.45891 16.9867 5.32035C15.4538 4.19599 15.4177 1.72788 16.9145 0.550116C18.4762 -0.679608 20.7639 0.261449 21.1016 2.29078C21.3513 3.78752 20.8 4.92488 19.41 5.68263C19.5471 6.06511 19.6698 6.44471 19.817 6.81421C20.6325 8.84498 21.474 10.8671 22.7542 12.6568C23.2248 13.315 23.7848 13.9299 24.3939 14.461C25.2469 15.2058 26.2428 15.3645 27.2589 14.754C27.8333 14.4091 28.4121 14.054 28.9288 13.6311C30.4862 12.3537 31.6798 10.7603 32.8345 9.04994V9.05282Z" fill="#AD1A19"/>
<path d="M30.472 26.7712V30H6.50684V26.7712H30.472Z" fill="#AD1A19"/>
</svg>
