<svg width="37" height="36" viewBox="0 0 37 36" fill="none" xmlns="http://www.w3.org/2000/svg">
<path d="M17.1194 24.0404C16.8334 25.2218 16.9906 26.3014 17.9683 27.33C18.0208 26.9407 18.0777 26.6682 18.0926 26.3942C18.2154 24.2785 18.3367 22.1628 18.4445 20.0456C18.4909 19.1278 18.4026 19.0365 17.4757 18.9272C16.8574 18.8538 16.236 18.8029 15.6161 18.7355C15.369 18.7086 15.119 18.6816 14.8779 18.6262C13.8807 18.4016 13.2878 17.5931 13.463 16.5854C13.6846 15.3097 13.9751 14.0475 14.2371 12.7793C14.5455 11.2924 14.8375 9.80114 15.1699 8.31881C15.3735 7.41444 15.9575 6.80953 16.8693 6.62237C17.7767 6.43521 18.5718 6.7182 19.0868 7.50728C19.3084 7.84716 19.4372 8.27988 19.4866 8.68565C19.527 9.01356 19.6199 9.26361 19.8624 9.45526C20.3685 9.85504 20.8491 10.3087 21.4076 10.6217C22.9424 11.4841 24.5505 12.113 26.3757 11.9602C27.1183 11.8974 27.873 11.9812 28.6186 11.9438C29.6203 11.8929 30.5516 12.655 30.5621 13.8618C30.5651 14.2107 30.5786 14.561 30.5561 14.9084C30.4873 15.976 29.818 16.6603 28.7534 16.7471C28.409 16.7755 28.0616 16.7516 27.6199 16.7516C27.6648 17.1274 27.6888 17.4359 27.7397 17.7413C27.9254 18.8852 28.2862 19.9708 28.96 20.9216C29.2295 21.3019 29.5604 21.6642 29.9333 21.9427C31.2104 22.8965 31.7944 24.1138 31.5129 25.7099C31.5054 25.7533 31.5339 25.8013 31.5548 25.8896C31.8528 25.936 32.1672 25.9839 32.4832 26.0333C34.5629 26.3597 36.2279 28.0143 36.5483 30.0805C36.6022 30.4279 36.6486 30.7843 36.3013 31.0328C36.0063 31.2439 36.159 31.5329 36.18 31.7904C36.2728 32.891 35.9719 33.8642 35.2427 34.6922C33.3426 36.8438 29.8539 36.2464 28.7803 33.5872C28.6965 33.3806 28.6381 33.1635 28.5527 32.9074C28.2413 33.141 27.8939 33.5034 27.5286 33.171C27.2516 32.9179 27.1138 32.5121 26.9177 32.1782H16.2405C16.0054 33.4839 15.4544 34.5395 14.3329 35.2118C13.6531 35.6205 12.912 35.8317 12.1214 35.7733C10.2183 35.6325 8.95911 34.4272 8.45452 32.2621C8.30629 32.2396 8.13709 32.2232 7.97239 32.1887C6.82396 31.9387 6.02441 31.0598 6.00045 29.8754C5.98697 29.1881 6.06933 28.4784 6.23403 27.8106C6.53948 26.5709 7.13241 25.4404 7.76726 24.3354C7.90052 24.1048 8.03677 23.9506 8.33923 23.9521C11.1826 23.9641 14.026 23.9611 16.8693 23.9671C16.9382 23.9671 17.0086 24.0075 17.1194 24.0404ZM23.8887 27.9604V14.9234C21.9392 14.6853 20.2278 13.9531 18.6571 12.7912C18.5283 13.3213 18.4175 13.754 18.3187 14.1912C18.1211 15.0716 18.1615 15.148 18.9865 15.4639C19.8235 15.7843 20.668 16.0838 21.499 16.4177C22.3045 16.7411 22.6953 17.3565 22.6654 18.2294C22.6594 18.4031 22.6549 18.5783 22.6354 18.752C22.4093 20.8572 22.1758 22.9609 21.9527 25.0661C21.8508 26.0229 21.764 26.9796 21.6652 27.9993C22.3045 27.9993 22.8735 28.0023 23.4425 27.9978C23.5862 27.9978 23.7285 27.9738 23.8872 27.9604H23.8887ZM33.4264 30.6151C32.3738 30.6076 31.0577 30.9624 30.1998 31.4461C29.8569 31.6392 29.6862 31.8758 29.7161 32.2831C29.821 33.6845 31.0308 34.785 32.4352 34.7356C33.8307 34.6877 34.9207 33.5722 34.9417 32.1723C34.9597 30.9759 34.6168 30.6241 33.4264 30.6151ZM9.7931 32.2411C10.0042 33.6606 11.1377 34.6129 12.4493 34.5395C13.7639 34.4646 14.7896 33.4914 14.8435 32.2411H9.7946H9.7931Z" fill="#AD1A19"/>
<path d="M6.00824 18.5991C4.68763 18.5991 3.36402 18.5512 2.04639 18.614C0.89647 18.6679 -0.0378436 17.7531 -0.00490306 16.5672C0.0519942 14.5249 0.0534915 12.4781 -0.00490306 10.4373C-0.0408382 9.18106 0.941389 8.34857 2.02693 8.36953C4.69362 8.41894 7.3603 8.38001 10.027 8.38749C11.2997 8.39049 12.0154 9.10919 12.0214 10.3804C12.0289 12.4497 11.9855 14.5189 12.0394 16.5867C12.0678 17.6692 11.2368 18.6709 9.97159 18.614C8.65397 18.5541 7.33036 18.6006 6.00974 18.6006L6.00824 18.5991Z" fill="#AD1A19"/>
<path d="M17.3993 22.7912H16.6371C13.8477 22.7912 11.0567 22.7748 8.26723 22.8047C7.71473 22.8107 7.38383 22.619 7.12929 22.1609C6.83582 21.6293 6.61571 21.0813 6.60673 20.4674C6.59775 19.9194 6.79988 19.7068 7.35238 19.6544C7.50062 19.6409 7.65184 19.6499 7.80008 19.6499C10.5895 19.6499 13.3805 19.6499 16.17 19.6499C16.3437 19.6499 16.5203 19.6394 16.6925 19.6604C17.1627 19.7158 17.3768 19.9089 17.3918 20.3746C17.4157 21.1427 17.3978 21.9123 17.3978 22.7912H17.3993Z" fill="#AD1A19"/>
<path d="M22.2047 3.00957C22.2047 4.69253 20.8466 6.03411 19.1592 6.01914C17.5136 6.00416 16.187 4.66109 16.1855 3.00957C16.1855 1.3281 17.5451 -0.0149711 19.2325 1.91285e-06C20.8811 0.0149749 22.2032 1.35356 22.2047 3.00807V3.00957Z" fill="#AD1A19"/>
</svg>
