<svg width="35" height="34" viewBox="0 0 35 34" fill="none" xmlns="http://www.w3.org/2000/svg">
<path d="M5.2536 26.9389C3.77394 24.2598 3.46047 21.4161 3.67299 18.4754C3.8802 15.6077 4.70371 12.9286 6.10101 10.4169C7.81577 7.33542 10.3022 5.09335 13.4674 3.58049C17.0019 1.89097 20.7023 0.75134 24.5914 0.242624C26.2637 0.023465 27.9359 -0.116 29.6162 0.131052C30.0518 0.194808 30.4875 0.286456 30.9085 0.415295C32.3045 0.845645 33.2051 1.77276 33.6102 3.18069C34.0326 4.64839 34.0963 6.15329 33.9648 7.65553C33.5637 12.2605 32.3457 16.6411 30.3015 20.7958C27.9412 25.5921 23.9884 28.3654 18.957 29.7441C15.9632 30.565 12.9255 30.6513 9.90376 29.8756C8.93016 29.6259 8.00438 29.1929 6.98296 28.817C6.89928 28.8967 6.73857 29.0442 6.58316 29.1982C5.22039 30.5583 3.86027 31.9211 2.49883 33.2812C2.35804 33.422 2.22255 33.5708 2.06715 33.693C1.5239 34.118 0.825248 34.0981 0.37099 33.6558C-0.0992068 33.1989 -0.1271 32.4498 0.313876 31.9078C0.425448 31.771 0.558272 31.6515 0.683126 31.5266C2.05918 30.1493 3.43657 28.7732 4.81395 27.3945C4.96803 27.2404 5.11679 27.081 5.25492 26.9376L5.2536 26.9389ZM18.184 17.6426C18.3793 17.4221 18.4736 17.3039 18.5785 17.1989C19.3595 16.4153 20.1538 15.6449 20.9188 14.8453C21.1872 14.565 21.4674 14.4667 21.8499 14.4707C23.841 14.4893 25.8333 14.484 27.8244 14.4853C28.0236 14.4853 28.2242 14.496 28.4207 14.476C29.0184 14.4149 29.5046 13.9434 29.579 13.3709C29.6467 12.8463 29.2921 12.2738 28.7382 12.0799C28.515 12.0015 28.264 11.9776 28.0249 11.9763C26.8295 11.9643 25.6354 11.9696 24.44 11.9657C24.2806 11.9657 24.1199 11.9471 23.8715 11.9311C24.1013 11.6907 24.2487 11.53 24.4015 11.3759C25.48 10.2947 26.5612 9.21621 27.6384 8.13502C27.7938 7.97829 27.9559 7.82288 28.0834 7.6449C28.4287 7.15876 28.3703 6.48668 27.9638 6.05765C27.564 5.63527 26.8919 5.55558 26.3859 5.89561C26.1866 6.02976 26.0126 6.20642 25.8413 6.37776C23.7108 8.50427 21.5843 10.6321 19.4551 12.7599C19.2931 12.922 19.1217 13.0747 18.8707 13.3085C18.8707 12.9034 18.8707 12.6391 18.8707 12.3748C18.8707 10.9801 18.8827 9.58678 18.8627 8.19213C18.8521 7.4895 18.3089 6.9582 17.6527 6.93562C17.051 6.9157 16.4706 7.42043 16.3736 8.06595C16.3444 8.2612 16.3563 8.4631 16.3563 8.66233C16.3563 10.8526 16.3431 13.0442 16.3656 15.2345C16.371 15.6954 16.2328 16.0181 15.8994 16.3303C15.1742 17.0116 14.4862 17.7329 13.7796 18.4342C13.6441 18.5683 13.4953 18.6905 13.2722 18.8898C13.2722 18.567 13.2748 18.3505 13.2722 18.134C13.2589 16.8722 13.2469 15.6117 13.227 14.3498C13.2217 14.0404 13.2177 13.7269 13.1633 13.4241C13.057 12.8277 12.5244 12.4066 11.9373 12.4159C11.3515 12.4252 10.8309 12.8662 10.7406 13.4613C10.7047 13.7003 10.714 13.9461 10.7166 14.1891C10.7352 16.4246 10.7472 18.6587 10.7831 20.8941C10.7897 21.2779 10.6901 21.5609 10.4045 21.8238C9.95025 22.2436 9.50263 22.6779 9.10682 23.1521C8.67647 23.6661 8.7296 24.3023 9.17057 24.7805C9.57569 25.2202 10.1946 25.2999 10.7419 24.9532C10.9451 24.8257 11.1218 24.6503 11.2931 24.4803C12.5948 23.1853 13.9004 21.8929 15.1848 20.5806C15.4877 20.2711 15.7972 20.1463 16.2288 20.1503C18.6409 20.1689 21.053 20.1609 23.4651 20.1556C23.7281 20.1556 24.0004 20.141 24.2514 20.0719C24.8504 19.9072 25.2237 19.3533 25.1639 18.7742C25.1041 18.1924 24.6299 17.7183 24.0283 17.6585C23.8091 17.6359 23.586 17.6465 23.3655 17.6452C21.6852 17.6452 20.0037 17.6452 18.1853 17.6452L18.184 17.6426Z" fill="#AD1A19"/>
</svg>
