<svg width="21" height="34" viewBox="0 0 21 34" fill="none" xmlns="http://www.w3.org/2000/svg">
<g clip-path="url(#clip0_4504_849)">
<path d="M2.81772 30.7212V27.5993L4.01792 27.5561C6.23712 27.4752 7.84102 26.9485 9.06632 25.895C10.0852 25.0193 10.7835 23.853 11.5239 22.6178L11.7804 22.1896C12.676 20.7055 13.6959 19.1581 15.4492 17.9782C16.0243 17.5924 16.6384 17.2682 17.3066 16.9992C16.6354 16.7302 16.0213 16.4052 15.4482 16.0194C13.6959 14.8411 12.674 13.2929 11.7774 11.8096L11.5219 11.383C10.7815 10.1462 10.0802 8.97909 9.06232 8.10335C7.83702 7.05071 6.23412 6.52319 4.01892 6.44234L2.81872 6.39911V3.2772C2.81872 2.22296 1.62552 1.29519 0.000520706 1.00781V32.9898C1.62552 32.7024 2.81872 31.7746 2.81872 30.7204L2.81772 30.7212Z" fill="#E6E6E6"/>
<path d="M19.1646 17.4771L21 17.0008L19.1616 16.5221C19.1616 16.5221 19.1596 16.5213 19.1576 16.5205C18.6136 16.3788 18.1247 16.2059 17.6728 16.0122C17.6448 16.0002 17.6147 15.9906 17.5877 15.9786C16.6259 15.5543 15.8584 15.0196 15.2163 14.4176C15.2062 14.408 15.1962 14.3992 15.1862 14.3896C14.8856 14.1054 14.6131 13.8052 14.3597 13.4955C14.3386 13.4698 14.3166 13.4434 14.2955 13.4178C14.0481 13.1096 13.8197 12.7918 13.6023 12.4676C13.5892 12.4484 13.5752 12.4284 13.5632 12.4092C13.3378 12.0706 13.1254 11.7264 12.917 11.3814C12.915 11.379 12.913 11.3758 12.912 11.3734L12.6575 10.9491C12.4842 10.6585 12.3119 10.3743 12.1365 10.0926C12.1055 10.0429 12.0744 9.99251 12.0434 9.94288C11.8731 9.67232 11.6977 9.40816 11.5164 9.1504C11.4783 9.09676 11.4402 9.04393 11.4012 8.9911C11.2158 8.73654 11.0235 8.48919 10.8161 8.25145C10.781 8.21142 10.743 8.173 10.7069 8.13378C10.4885 7.89203 10.2581 7.65828 10.0046 7.43815C9.9615 7.40053 9.9134 7.36531 9.8693 7.32848C9.7331 7.21641 9.5958 7.10595 9.4526 7.00428C9.3674 6.94345 9.2732 6.88821 9.1841 6.82978C9.0809 6.76334 8.9787 6.6953 8.8725 6.63366C8.7583 6.56802 8.636 6.50798 8.5148 6.44634C8.4256 6.40152 8.3375 6.35429 8.2453 6.31186C8.101 6.24622 7.9478 6.18618 7.7935 6.12615C7.7163 6.09653 7.6412 6.06451 7.563 6.03729C7.3897 5.97646 7.2054 5.92202 7.019 5.86919C6.9489 5.84918 6.8808 5.82757 6.8096 5.80915C6.6113 5.75792 6.4019 5.7147 6.1885 5.67307C6.1174 5.65946 6.0492 5.64265 5.9771 5.63064C5.7607 5.59302 5.5303 5.5634 5.2978 5.53619C5.2177 5.52658 5.1425 5.51377 5.0604 5.50577C4.7859 5.47855 4.4974 5.46014 4.1998 5.44733C4.1587 5.44573 4.1207 5.44093 4.0796 5.43933V3.27801C4.0796 3.05627 4.0425 2.84014 3.9794 2.62961C3.9413 2.50393 3.8752 2.38466 3.8151 2.26378C3.778 2.18694 3.751 2.10689 3.7049 2.03244C3.6147 1.88755 3.5015 1.75147 3.3823 1.61699C3.3442 1.57376 3.3132 1.52733 3.2721 1.48491C3.1438 1.35363 2.9956 1.23275 2.8423 1.11428C2.7902 1.07426 2.7431 1.03103 2.688 0.991807C2.5397 0.887743 2.3754 0.794886 2.2091 0.70363C2.1259 0.658803 2.0468 0.610774 1.9596 0.569148C1.8084 0.496304 1.6451 0.433065 1.4818 0.371427C1.3575 0.324999 1.2343 0.27777 1.103 0.237745C0.956801 0.192118 0.8035 0.155295 0.6492 0.119273C0.4869 0.08165 0.3246 0.0472289 0.1583 0.0200122C0.1072 0.0120073 0.0530994 0.00720441 0.000999451 0V1.00862C1.626 1.29599 2.8192 2.22376 2.8192 3.27801V6.39991L4.0195 6.44314C6.2346 6.52399 7.8376 7.05151 9.0628 8.10416C10.0817 8.97989 10.782 10.147 11.5224 11.3838L11.7779 11.8104C12.6745 13.2937 13.6974 14.8419 15.4487 16.0202C16.0228 16.406 16.6369 16.731 17.3071 17C16.6389 17.269 16.0248 17.5932 15.4497 17.979C13.6964 19.1589 12.6765 20.7063 11.7809 22.1904L11.5244 22.6186C10.785 23.8538 10.0857 25.0201 9.0668 25.8958C7.8416 26.9493 6.2376 27.476 4.0185 27.5569L2.8182 27.6001V30.722C2.8182 31.7762 1.625 32.704 0 32.9914V34C0.0521 33.9928 0.105201 33.9888 0.157301 33.98C0.323601 33.9528 0.485901 33.9184 0.645201 33.8807C0.799501 33.8439 0.9528 33.8071 1.1 33.7615C1.2303 33.7214 1.3535 33.6742 1.4767 33.6278C1.64 33.5653 1.8033 33.5029 1.9556 33.4292C2.0428 33.3876 2.1219 33.3396 2.2051 33.2948C2.3714 33.2035 2.5367 33.1107 2.684 33.0066C2.7391 32.9682 2.7862 32.9249 2.8383 32.8841C2.9916 32.7656 3.1408 32.6448 3.2681 32.5135C3.3091 32.4711 3.3402 32.4254 3.3783 32.3814C3.4965 32.2469 3.6107 32.11 3.7009 31.966C3.746 31.8915 3.774 31.8115 3.8111 31.7346C3.8712 31.6137 3.9373 31.4945 3.9754 31.3688C4.0385 31.1591 4.0756 30.9429 4.0756 30.7204V28.5591C4.1166 28.5575 4.1537 28.5527 4.1938 28.5511C4.4923 28.5383 4.7839 28.5198 5.0594 28.4918C5.1375 28.4838 5.2097 28.4718 5.2858 28.463C5.5223 28.435 5.7557 28.4054 5.9761 28.367C6.0462 28.3549 6.1124 28.3389 6.1815 28.3253C6.3969 28.2837 6.6093 28.2397 6.8096 28.1884C6.8788 28.1708 6.9439 28.1492 7.011 28.1308C7.2014 28.0772 7.3877 28.0219 7.564 27.9603C7.6402 27.9339 7.7123 27.9027 7.7875 27.8747C7.9448 27.8146 8.1 27.753 8.2473 27.6865C8.3375 27.6449 8.4236 27.5985 8.5118 27.5545C8.635 27.4928 8.7583 27.4312 8.8745 27.3647C8.9807 27.3031 9.0829 27.2351 9.1861 27.1686C9.2762 27.111 9.3684 27.055 9.4546 26.9949C9.6088 26.8852 9.7571 26.7684 9.9024 26.6467C9.9345 26.6195 9.9695 26.5947 10.0016 26.5667C10.2601 26.3433 10.4935 26.1056 10.7149 25.8598C10.748 25.823 10.783 25.7878 10.8161 25.7502C11.0275 25.5084 11.2238 25.2571 11.4112 24.9977C11.4453 24.9513 11.4793 24.9048 11.5124 24.8584C11.6987 24.5942 11.8791 24.3229 12.0534 24.0451C12.0784 24.0051 12.1035 23.9643 12.1285 23.9242C12.3079 23.6369 12.4842 23.3447 12.6625 23.0469L12.6655 23.0413L12.914 22.625C12.921 22.613 12.929 22.601 12.937 22.589C13.1404 22.252 13.3488 21.9158 13.5682 21.5852C13.5792 21.5684 13.5912 21.5508 13.6033 21.534C13.8217 21.2074 14.0521 20.8864 14.3026 20.575C14.3206 20.5526 14.3386 20.531 14.3567 20.5085C14.6111 20.1964 14.8856 19.8946 15.1882 19.608C15.1972 19.6 15.2062 19.592 15.2143 19.5832C15.8575 18.9788 16.6269 18.4433 17.5907 18.0182C17.6147 18.0078 17.6408 17.999 17.6658 17.9886C18.1207 17.7925 18.6136 17.6188 19.1626 17.4763L19.1646 17.4771Z" fill="#CFCFCF"/>
</g>
<defs>
<clipPath id="clip0_4504_849">
<rect width="21" height="34" fill="white" transform="matrix(-1 0 0 1 21 0)"/>
</clipPath>
</defs>
</svg>
