<svg width="43" height="52" viewBox="0 0 43 52" fill="none" xmlns="http://www.w3.org/2000/svg">
<path fill-rule="evenodd" clip-rule="evenodd" d="M32.4496 48.6888C28.9909 47.0004 13.1902 38.9309 12.2442 37.6071C11.3036 36.3521 11.4991 35.6651 11.5916 35.2555C11.6973 35.0441 11.4542 34.6637 11.3406 34.6029C10.2705 34.0401 3.59348 30.5999 2.23271 29.8997C2.18251 29.9816 2.12702 30.0688 2.06889 30.1612L8.65605 34.6319C8.65605 34.6319 8.74589 34.6927 8.71946 34.7826L1.55101 30.9751L1.3819 31.2366L7.98491 35.7417C7.98491 35.7417 8.06418 35.7945 8.05097 35.8738L0.86402 32.0346L0.697557 32.2909L7.32699 36.8382C7.32699 36.8382 7.41419 36.8964 7.38512 36.9862L0.169105 33.0968L0 33.3557C1.47174 34.3941 7.30585 38.5029 8.27028 39.1714C8.32048 39.2057 8.71682 39.3457 8.88328 39.1264C9.11052 38.9335 9.63369 38.6086 10.4634 38.5187C10.7329 38.5081 11.0288 38.524 11.3538 38.5795C12.9682 38.8067 27.4346 49.0746 30.5287 51.3575C31.0915 51.7723 31.9582 52.0867 32.9226 51.9784C33.3744 51.9705 33.8553 51.8674 34.3388 51.6428C34.2675 50.1235 33.3057 49.1063 32.4496 48.6861V48.6888Z" fill="#FF9D24"/>
<path fill-rule="evenodd" clip-rule="evenodd" d="M42.089 31.2867C40.419 29.0937 36.1571 29.8494 33.3166 31.7412C29.0283 34.5975 29.7443 36.5766 28.6953 38.5001C27.7309 39.8107 14.1074 46.7466 10.6302 48.3875C9.8745 48.7415 9.02634 49.5527 8.77004 50.7761C8.69077 51.035 8.63792 51.3151 8.62207 51.6163C8.89687 51.7405 9.16902 51.8224 9.43589 51.8726C10.6408 52.2082 11.7505 51.8303 12.4137 51.323C15.4735 48.9925 27.9079 40.0987 29.5144 39.8477C31.7075 39.8054 33.1317 41.3511 37.6447 38.8621C40.6331 37.2133 43.27 33.7784 42.0916 31.2867H42.089Z" fill="#FF9D24"/>
<path fill-rule="evenodd" clip-rule="evenodd" d="M10.1491 29.5035L9.94569 15.6633C6.19897 14.3184 3.62012 11.507 3.62012 8.25442C3.61748 3.69652 8.68798 0 14.9396 0C17.3493 0 19.5847 0.54959 21.421 1.48495C23.2574 0.54959 25.4901 0 27.9025 0C34.1541 0 39.2246 3.69652 39.2246 8.25442C39.2246 11.507 36.6457 14.3184 32.899 15.6633C32.8303 20.2767 32.7643 24.8901 32.6956 29.5035C25.0277 31.4852 17.529 31.2897 10.1518 29.5035H10.1491Z" fill="#FF9D24"/>
<path fill-rule="evenodd" clip-rule="evenodd" d="M16.7549 15.053C16.5646 15.0583 14.3028 15.3991 12.9447 15.6079L13.0716 29.02H11.5205L11.3911 15.4652C2.41267 12.0514 4.23847 2.9937 12.485 1.22339C10.1122 2.5181 7.02078 5.06524 7.02078 7.86075C7.02078 15.6369 16.9002 15.0477 16.7575 15.0503L16.7549 15.053Z" fill="white"/>
</svg>
