<svg width="40" height="40" viewBox="0 0 40 40" fill="none" xmlns="http://www.w3.org/2000/svg">
<mask id="mask0_326_8864" style="mask-type:luminance" maskUnits="userSpaceOnUse" x="0" y="0" width="41" height="40">
<path fill-rule="evenodd" clip-rule="evenodd" d="M0 0H40.0035V40H0V0Z" fill="white"/>
</mask>
<g mask="url(#mask0_326_8864)">
<path fill-rule="evenodd" clip-rule="evenodd" d="M17.8896 36.1506C19.0695 37.3025 20.9694 37.2885 22.1414 36.1106L23.5853 34.6706C24.7052 33.5527 26.2532 32.9147 27.8311 32.9147H29.891C31.5589 32.9147 32.9148 31.5588 32.9148 29.8929V27.835C32.9148 26.2331 33.5348 24.7271 34.6667 23.5932L36.1067 22.1513C36.6926 21.5633 37.0066 20.8013 37.0046 19.9934C37.0026 19.1874 36.6846 18.4294 36.1107 17.8575L34.6687 16.4135C33.5348 15.2716 32.9148 13.7677 32.9148 12.1658V10.1119C32.9148 8.44394 31.5589 7.08801 29.891 7.08801H27.8351C26.2332 7.08801 24.7272 6.46604 23.5933 5.3401L22.1494 3.89417C20.9474 2.70423 19.0295 2.71023 17.8556 3.89217L16.4176 5.3341C15.2697 6.46804 13.7638 7.08801 12.1679 7.08801H10.11C8.44404 7.09001 7.08811 8.44594 7.08811 10.1119V12.1618C7.08811 13.7637 6.46614 15.2696 5.3382 16.4055L3.91827 17.8275C3.90427 17.8435 3.89027 17.8555 3.87627 17.8695C2.70233 19.0514 2.70833 20.9693 3.89027 22.1433L5.3342 23.5872C6.46614 24.7231 7.08811 26.2291 7.08811 27.831V29.8929C7.08811 31.5588 8.44204 32.9147 10.11 32.9147H12.1639C13.7678 32.9167 15.2737 33.5387 16.4076 34.6686L17.8496 36.1066C17.8616 36.1206 17.8756 36.1346 17.8896 36.1506ZM19.9964 40.0007C18.4625 40.0007 16.9286 39.4207 15.7547 38.2568C15.7387 38.2408 15.7227 38.2248 15.7067 38.2068L14.2867 36.7888C13.7208 36.2269 12.9648 35.9149 12.1608 35.9129H10.1089C6.78711 35.9129 4.08724 33.211 4.08724 29.8912V27.8293C4.08724 27.0253 3.77326 26.2714 3.20928 25.7034L1.77136 24.2675C-0.564527 21.9436 -0.592526 18.1598 1.70136 15.7999C1.71936 15.7819 1.73736 15.7639 1.75536 15.7459L3.21128 14.286C3.77326 13.72 4.08724 12.962 4.08724 12.1601V10.1102C4.08724 6.79034 6.78711 4.08848 10.1069 4.08648H12.1668C12.9688 4.08648 13.7248 3.77249 14.2987 3.20652L15.7287 1.77259C18.0665 -0.581289 21.8884 -0.593289 24.2462 1.75059L25.7082 3.21252C26.2741 3.77449 27.0301 4.08648 27.8341 4.08648H29.89C33.2118 4.08648 35.9137 6.78834 35.9137 10.1102V12.1641C35.9137 12.966 36.2256 13.724 36.7916 14.294L38.2275 15.7319C39.3655 16.8618 39.9974 18.3718 40.0034 19.9817C40.0094 21.5916 39.3875 23.1055 38.2535 24.2475L36.7876 25.7094C36.2256 26.2754 35.9137 27.0293 35.9137 27.8333V29.8912C35.9137 33.211 33.2118 35.9129 29.892 35.9129H27.8301C27.0381 35.9129 26.2641 36.2329 25.7022 36.7908L24.2662 38.2268C23.0923 39.4087 21.5444 40.0007 19.9964 40.0007Z" fill="#AD1A19"/>
</g>
<path fill-rule="evenodd" clip-rule="evenodd" d="M14.8608 26.6412C14.4768 26.6412 14.0928 26.4952 13.8008 26.2012C13.2148 25.6153 13.2148 24.6673 13.8008 24.0813L24.0803 13.7999C24.6663 13.2139 25.6162 13.2139 26.2022 13.7999C26.7882 14.3858 26.7882 15.3358 26.2022 15.9218L15.9207 26.2012C15.6287 26.4952 15.2447 26.6412 14.8608 26.6412Z" fill="#AD1A19"/>
<path fill-rule="evenodd" clip-rule="evenodd" d="M25.005 26.9966C23.8991 26.9966 22.9951 26.1026 22.9951 24.9967C22.9951 23.8908 23.8811 22.9968 24.987 22.9968H25.005C26.111 22.9968 27.0049 23.8908 27.0049 24.9967C27.0049 26.1026 26.111 26.9966 25.005 26.9966Z" fill="#AD1A19"/>
<path fill-rule="evenodd" clip-rule="evenodd" d="M15.005 16.9968C13.8991 16.9968 12.9951 16.1029 12.9951 14.9969C12.9951 13.891 13.8811 12.997 14.987 12.997H15.005C16.111 12.997 17.0049 13.891 17.0049 14.9969C17.0049 16.1029 16.111 16.9968 15.005 16.9968Z" fill="#AD1A19"/>
</svg>
