<svg width="44" height="36" viewBox="0 0 44 36" fill="none" xmlns="http://www.w3.org/2000/svg">
<path d="M14.2232 1H42.5566V25.5557H14.2232V1Z" stroke="#AD1A19" stroke-width="2" stroke-linecap="round" stroke-linejoin="round"/>
<path d="M14.2217 10.4448H6.66609L0.999394 16.1115V25.556H14.2217V10.4448Z" stroke="#AD1A19" stroke-width="2" stroke-linecap="round" stroke-linejoin="round"/>
<path d="M34.0551 35C31.4471 35 29.3329 32.8857 29.3329 30.2777C29.3329 27.6697 31.4471 25.5555 34.0551 25.5555C36.6631 25.5555 38.7773 27.6697 38.7773 30.2777C38.7773 32.8857 36.6631 35 34.0551 35Z" stroke="#AD1A19" stroke-width="2" stroke-linecap="round" stroke-linejoin="round"/>
<path d="M9.49943 35C6.89141 35 4.77719 32.8857 4.77719 30.2777C4.77719 27.6697 6.89141 25.5555 9.49943 25.5555C12.1075 25.5555 14.2217 27.6697 14.2217 30.2777C14.2217 32.8857 12.1075 35 9.49943 35Z" stroke="#AD1A19" stroke-width="2" stroke-linecap="round" stroke-linejoin="round"/>
</svg>
