<svg width="36" height="36" viewBox="0 0 36 36" fill="none" xmlns="http://www.w3.org/2000/svg">
<path d="M1 29.3331V17.9999C1 13.4912 2.79105 9.16724 5.97915 5.97915C9.16724 2.79105 13.4912 1 17.9999 1C22.5085 1 26.8325 2.79105 30.0206 5.97915C33.2087 9.16724 34.9997 13.4912 34.9997 17.9999V29.3331" stroke="#AD1A19" stroke-width="2" stroke-linecap="round" stroke-linejoin="round"/>
<path d="M34.9997 31.2222C34.9997 32.2242 34.6017 33.185 33.8933 33.8935C33.1848 34.602 32.2239 35 31.222 35H29.3331C28.3312 35 27.3703 34.602 26.6618 33.8935C25.9534 33.185 25.5554 32.2242 25.5554 31.2222V25.5556C25.5554 24.5537 25.9534 23.5928 26.6618 22.8843C27.3703 22.1759 28.3312 21.7779 29.3331 21.7779H34.9997V31.2222ZM1 31.2222C1 32.2242 1.39801 33.185 2.10648 33.8935C2.81494 34.602 3.77583 35 4.77775 35H6.66662C7.66854 35 8.62943 34.602 9.3379 33.8935C10.0464 33.185 10.4444 32.2242 10.4444 31.2222V25.5556C10.4444 24.5537 10.0464 23.5928 9.3379 22.8843C8.62943 22.1759 7.66854 21.7779 6.66662 21.7779H1V31.2222Z" stroke="#AD1A19" stroke-width="2" stroke-linecap="round" stroke-linejoin="round"/>
</svg>
